<!--?xml version="1.0" standalone="no"?-->
              <svg id="sw-js-blob-svg" viewBox="0 0 100 100" xmlns="http://www.w3.org/2000/svg" version="1.1">
                    <defs> 
                        <linearGradient id="sw-gradient" x1="0" x2="1" y1="1" y2="0">
                            <stop id="stop1" stop-color="rgba(6.87, 9.715, 62.232, 1)" offset="0%"></stop>
                            <stop id="stop2" stop-color="rgba(14.466, 50.145, 176.071, 1)" offset="100%"></stop>
                        </linearGradient>
                    </defs>
                <path fill="url(#sw-gradient)" d="M21.1,-28.8C22.5,-24,15.4,-12.7,14.2,-4.7C12.9,3.3,17.6,8.1,17,10.3C16.3,12.6,10.3,12.3,5.3,13.8C0.2,15.3,-3.9,18.7,-9.6,19.6C-15.4,20.5,-22.8,18.9,-28.9,13.9C-35,9,-39.8,0.5,-39.6,-8C-39.3,-16.5,-33.8,-25.2,-26.4,-29C-18.9,-32.7,-9.5,-31.6,0.2,-31.8C9.9,-32.1,19.7,-33.6,21.1,-28.8Z" width="100%" height="100%" transform="translate(50 50)" style="transition: all 0.3s ease 0s;" stroke-width="0"></path>
              </svg>